<?xml version="1.0" encoding="utf-8"?>
<!-- Generator: Adobe Illustrator 17.0.0, SVG Export Plug-In . SVG Version: 6.00 Build 0)  -->
<!DOCTYPE svg PUBLIC "-//W3C//DTD SVG 1.1//EN" "http://www.w3.org/Graphics/SVG/1.1/DTD/svg11.dtd">
<svg version="1.1" xmlns="http://www.w3.org/2000/svg" xmlns:xlink="http://www.w3.org/1999/xlink" x="0px" y="0px" width="74px"
	 height="74px" viewBox="0 0 74 74" enable-background="new 0 0 74 74" xml:space="preserve">
<g id="Слой_2">
	<circle fill="#D6BF90" cx="37" cy="37" r="36"/>
</g>
<g id="Слой_3">
	<g>
		<g>
			<defs>
				<rect id="SVGID_1_" x="11.488" y="18.108" width="52.556" height="44.608"/>
			</defs>
			<clipPath id="SVGID_2_">
				<use xlink:href="#SVGID_1_"  overflow="visible"/>
			</clipPath>
			<path clip-path="url(#SVGID_2_)" d="M16.676,40.008c0,0,0.949-2.241-0.667-4.584c-1.614-2.338-4.055-2.749-4.055-2.749
				s-1.044,2.654,0.523,4.927C14.055,39.89,16.676,40.008,16.676,40.008L16.676,40.008z M16.676,40.008"/>
		</g>
		<path d="M21.032,40.27c0,0,2.472-0.864,3.319-3.5c0.856-2.638-0.91-4.872-0.91-4.872s-2.218,1.093-3.098,3.802
			C19.472,38.4,21.032,40.27,21.032,40.27L21.032,40.27z M21.032,40.27"/>
		<path d="M22.07,43.193c-0.515,2.794,1.275,4.443,1.275,4.443s2.336-1.18,2.843-3.905c0.499-2.725-1.545-4.712-1.545-4.712
			S22.585,40.397,22.07,43.193L22.07,43.193z M22.07,43.193"/>
		<path d="M27.82,52.397c0,0,2.216-1.395,2.464-4.159c0.237-2.758-1.981-4.538-1.981-4.538s-1.924,1.559-2.17,4.388
			C25.888,50.923,27.82,52.397,27.82,52.397L27.82,52.397z M27.82,52.397"/>
		<path d="M33.696,56.839c0,0,1.728-1.981,1.164-4.688c-0.562-2.717-3.208-3.788-3.208-3.788s-1.385,2.052-0.815,4.832
			C31.415,55.984,33.696,56.839,33.696,56.839L33.696,56.839z M33.696,56.839"/>
		<g>
			<defs>
				<rect id="SVGID_3_" x="11.488" y="18.108" width="52.556" height="44.608"/>
			</defs>
			<clipPath id="SVGID_4_">
				<use xlink:href="#SVGID_3_"  overflow="visible"/>
			</clipPath>
			<path clip-path="url(#SVGID_4_)" d="M18.584,34.179c0,0,2.036-1.338,1.995-4.181c-0.047-2.837-1.853-4.54-1.853-4.54
				s-2.336,1.624-2.295,4.396C16.478,32.627,18.584,34.179,18.584,34.179L18.584,34.179z M18.584,34.179"/>
			<path clip-path="url(#SVGID_4_)" d="M18.165,45.679c0,0,0.245-2.423-1.981-4.181c-2.241-1.76-4.688-1.434-4.688-1.434
				s-0.229,2.843,1.949,4.562C15.622,46.336,18.165,45.679,18.165,45.679L18.165,45.679z M18.165,45.679"/>
		</g>
		<path d="M21.547,51.018c0,0-0.302-2.423-2.859-3.644c-2.575-1.221-4.895-0.349-4.895-0.349s0.42,2.82,2.914,4.009
			C19.217,52.222,21.547,51.018,21.547,51.018L21.547,51.018z M21.547,51.018"/>
		<path d="M21.8,52.484c-2.812-0.381-4.769,1.14-4.769,1.14s1.253,2.559,4,2.938c2.741,0.381,4.595-1.472,4.595-1.472
			S24.62,52.871,21.8,52.484L21.8,52.484z M21.8,52.484"/>
		<path d="M27.384,56.76c-2.843-0.041-4.595,1.703-4.595,1.703s1.545,2.399,4.317,2.439c2.772,0.047,4.388-2.011,4.388-2.011
			S30.227,56.807,27.384,56.76L27.384,56.76z M27.384,56.76"/>
		<path d="M19.282,35.691l-1.33-0.268c-0.032,0.15-2.709,14.605,18.129,24.678l0.586-1.219
			C16.834,49.282,19.17,36.247,19.282,35.691L19.282,35.691z M19.282,35.691"/>
		<path d="M57.624,40c0,0,2.622-0.118,4.197-2.407c1.569-2.273,0.523-4.927,0.523-4.927s-2.447,0.412-4.063,2.749
			C56.673,37.759,57.624,40,57.624,40L57.624,40z M57.624,40"/>
		<path d="M53.267,40.261c0,0,1.561-1.869,0.689-4.57c-0.878-2.709-3.096-3.802-3.096-3.802s-1.766,2.234-0.91,4.872
			C50.797,39.398,53.267,40.261,53.267,40.261L53.267,40.261z M53.267,40.261"/>
		<path d="M48.11,43.723c0.507,2.725,2.845,3.905,2.845,3.905s1.79-1.646,1.275-4.442c-0.515-2.796-2.575-4.175-2.575-4.175
			S47.612,40.999,48.11,43.723L48.11,43.723z M48.11,43.723"/>
		<path d="M45.998,43.692c0,0-2.218,1.782-1.981,4.546c0.245,2.756,2.464,4.151,2.464,4.151s1.932-1.474,1.687-4.309
			C47.914,45.251,45.998,43.692,45.998,43.692L45.998,43.692z M45.998,43.692"/>
		<path d="M39.438,52.135c-0.562,2.717,1.164,4.696,1.164,4.696s2.281-0.856,2.861-3.644c0.57-2.78-0.817-4.832-0.817-4.832
			S40,49.426,39.438,52.135L39.438,52.135z M39.438,52.135"/>
		<path d="M55.714,34.17c0,0,2.109-1.551,2.155-4.323c0.041-2.774-2.297-4.396-2.297-4.396s-1.805,1.701-1.853,4.538
			C53.68,32.832,55.714,34.17,55.714,34.17L55.714,34.17z M55.714,34.17"/>
		<path d="M62.805,40.057c0,0-2.455-0.324-4.69,1.434c-2.226,1.758-1.979,4.181-1.979,4.181s2.541,0.657,4.712-1.052
			C63.026,42.899,62.805,40.057,62.805,40.057L62.805,40.057z M62.805,40.057"/>
		<path d="M55.613,47.366c-2.559,1.221-2.859,3.644-2.859,3.644s2.328,1.204,4.83,0.016c2.504-1.188,2.916-4.009,2.916-4.009
			S58.186,46.148,55.613,47.366L55.613,47.366z M55.613,47.366"/>
		<path d="M52.5,52.476c-2.82,0.387-3.826,2.605-3.826,2.605s1.853,1.853,4.593,1.472c2.749-0.371,3.992-2.938,3.992-2.938
			S55.319,52.095,52.5,52.476L52.5,52.476z M52.5,52.476"/>
		<path d="M42.804,58.883c0,0,1.616,2.058,4.388,2.011c2.774-0.041,4.317-2.439,4.317-2.439s-1.75-1.742-4.593-1.703
			C44.071,56.799,42.804,58.883,42.804,58.883L42.804,58.883z M42.804,58.883"/>
		<path d="M56.349,35.415l-1.33,0.268c0.11,0.556,2.447,13.593-17.385,23.192l0.586,1.219C59.058,50.02,56.381,35.565,56.349,35.415
			L56.349,35.415z M56.349,35.415"/>
	</g>
</g>
</svg>
