<?xml version="1.0" encoding="utf-8"?>
<!-- Generator: Adobe Illustrator 17.0.0, SVG Export Plug-In . SVG Version: 6.00 Build 0)  -->
<!DOCTYPE svg PUBLIC "-//W3C//DTD SVG 1.1//EN" "http://www.w3.org/Graphics/SVG/1.1/DTD/svg11.dtd">
<svg version="1.1" id="Слой_1" xmlns="http://www.w3.org/2000/svg" xmlns:xlink="http://www.w3.org/1999/xlink" x="0px" y="0px"
	 width="177.229px" height="95.844px" viewBox="0 0 177.229 95.844" enable-background="new 0 0 177.229 95.844"
	 xml:space="preserve">
<path fill-rule="evenodd" clip-rule="evenodd" fill="#2F75BB" d="M46.773,62.964v0.038c6.539-9.772,9.848-19.696,9.887-31.444
	c0-11.672-3.537-21.824-9.887-31.558h-0.039c-5.741,9.163-9.39,18.746-9.732,29.429C36.621,41.367,40.044,53.116,46.773,62.964
	L46.773,62.964z M46.773,60.683v-0.039c-1.824-3.573-2.777-7.452-2.777-11.406c0-3.878,0.952-7.946,2.777-11.369v-0.037
	c1.75,3.612,2.776,7.375,2.776,11.406C49.549,53.382,48.523,56.956,46.773,60.683L46.773,60.683z M39.435,29.163
	c0.646-8.669,3.27-16.463,7.3-24.295l0.039,0.038c4.638,8.364,7.072,16.577,7.529,26.083c0.228,4.183-0.191,8.251-1.064,12.357
	c0.189-4.22-0.039-8.174-0.799-12.28c-1.028-5.703-3.004-10.799-5.665-15.97l-0.039-0.038c-2.357,4.677-4.143,9.277-5.246,14.334
	c-1.026,4.714-1.256,9.087-1.256,13.954C39.549,38.592,39.092,33.953,39.435,29.163L39.435,29.163z"/>
<path fill-rule="evenodd" clip-rule="evenodd" fill="#2F75BB" d="M36.735,74.559c1.901-1.862,3.689-2.813,6.389-2.546
	c4.334,0.419,7.108,3.003,7.337,7.3c0.42,8.213-10.455,13.194-17.261,12.813c-9.848-0.493-16.387-6.842-17.947-15.893
	c-0.95-5.512,1.102-11.558,4.982-15.74c3.84-4.107,9.049-5.741,14.447-5.856V29.961C16.241,29.961,2.63,43.04,1.68,60.949
	C0.654,80.91,15.139,94.446,33.618,95.092c9.81,0.38,17.147-3.308,23.878-9.658V64.181H36.735V74.559L36.735,74.559z"/>
<polygon fill-rule="evenodd" clip-rule="evenodd" fill="#2F75BB" points="62.413,94.382 68.578,94.382 68.578,69.04 71.418,69.04 
	71.418,64.219 62.413,64.219 62.413,94.382 "/>
<path fill-rule="evenodd" clip-rule="evenodd" fill="#2F75BB" d="M74.596,64.219L71.68,94.382h5.495l0.634-5.53h2.392l0.674,5.53
	h5.495l-2.953-30.163H74.596L74.596,64.219z M78.035,83.318l0.821-10.877h0.301l0.86,10.877H78.035L78.035,83.318z"/>
<path fill-rule="evenodd" clip-rule="evenodd" fill="#2F75BB" d="M100.834,78.833v-0.336c1.346-0.224,1.309-2.877,1.309-4.075v-4.82
	c0-3.701-0.263-5.383-4.56-5.383h-5.122c-4.336,0-4.597,2.167-4.597,5.383v3.961h6.166v-3.4c0-0.785,0.637-1.01,0.973-1.01
	c0.599,0,0.971,0.487,0.971,1.01v3.588c0,1.869-0.597,2.241-2.354,2.241h-1.159v5.271h1.047c2.317,0,2.466,1.047,2.466,1.981v5.495
	c0,0.521-0.372,1.009-0.971,1.009c-0.335,0-0.973-0.225-0.973-1.009V83.43h-6.166v5.532c0,4.298,0.261,5.42,4.597,5.42h5.122
	c3.961,0,4.56-0.748,4.56-5.42v-6.054C102.143,81.823,102.329,78.833,100.834,78.833L100.834,78.833z"/>
<polygon fill-rule="evenodd" clip-rule="evenodd" fill="#2F75BB" points="104.908,94.382 111.074,94.382 111.074,69.115 
	113.018,69.115 113.018,94.382 119.187,94.382 119.187,64.219 104.908,64.219 104.908,94.382 "/>
<path fill-rule="evenodd" clip-rule="evenodd" fill="#2F75BB" d="M132.082,64.219h-9.681v30.163h6.166V84.104h3.514
	c4.334,0,4.593-1.945,4.593-5.384v-9.118C136.675,66.948,136.416,64.219,132.082,64.219L132.082,64.219z M130.511,77.898
	c0,0.973-0.488,1.534-1.16,1.534h-0.783V69.04h0.783c0.672,0,1.16,0.562,1.16,1.495V77.898L130.511,77.898z"/>
<path fill-rule="evenodd" clip-rule="evenodd" fill="#2F75BB" d="M148.974,64.219h-5.12c-4.299,0-4.561,2.466-4.561,5.308v19.435
	c0,3.512,0.262,5.42,4.561,5.42h5.12c4.336,0,4.597-1.683,4.597-5.42v-19.36C153.571,66.686,153.311,64.219,148.974,64.219
	L148.974,64.219z M147.406,88.589c0,0.523-0.412,0.973-0.976,0.973c-0.371,0-0.971-0.189-0.971-0.973V70.087
	c0-0.785,0.6-0.973,0.971-0.973c0.564,0,0.976,0.449,0.976,0.973V88.589L147.406,88.589z"/>
<polygon fill-rule="evenodd" clip-rule="evenodd" fill="#2F75BB" points="169.194,64.219 166.727,78.011 164.484,64.219 
	156.45,64.219 156.45,94.382 162.655,94.382 162.655,80.703 162.878,80.703 164.933,94.382 168.708,94.382 170.839,80.703 
	171.063,80.703 171.063,94.382 177.229,94.382 177.229,64.219 169.194,64.219 "/>
</svg>
