<?xml version="1.0" encoding="utf-8"?>
<!-- Generator: Adobe Illustrator 17.0.0, SVG Export Plug-In . SVG Version: 6.00 Build 0)  -->
<!DOCTYPE svg PUBLIC "-//W3C//DTD SVG 1.1//EN" "http://www.w3.org/Graphics/SVG/1.1/DTD/svg11.dtd">
<svg version="1.1" id="Слой_1" xmlns="http://www.w3.org/2000/svg" xmlns:xlink="http://www.w3.org/1999/xlink" x="0px" y="0px"
	 width="373.415px" height="490.776px" viewBox="0 0 373.415 490.776" enable-background="new 0 0 373.415 490.776"
	 xml:space="preserve">
<polygon fill="#4D5B9D" points="281.199,259.186 65.57,259.186 40.044,224.539 145.398,52.615 153.64,65.958 56.904,223.821 
	72.646,245.186 255.321,245.186 200.241,160.931 211.958,153.27 "/>
<polygon fill="#4D5B9D" points="293.895,289.054 86.765,288.94 76.773,274.94 285.452,275.05 297.014,253.116 202.569,105.46 
	150.417,187.042 138.621,179.501 202.566,79.473 313.198,252.436 "/>
<polygon fill="#4D5B9D" points="323.352,234.06 217.644,67.006 189.888,67.006 102.336,212.346 207.676,212.217 207.694,226.217 
	77.54,226.376 181.978,53.006 225.353,53.006 331.061,219.99 "/>
<path fill="#4D5B9D" d="M187,352.667C95.651,352.667,21.333,278.35,21.333,187C21.333,95.651,95.651,21.333,187,21.333
	S352.667,95.651,352.667,187S278.349,352.667,187,352.667z M187,27.333C98.959,27.333,27.333,98.959,27.333,187
	c0,88.04,71.626,159.667,159.667,159.667c88.04,0,159.667-71.626,159.667-159.667S275.04,27.333,187,27.333z"/>
<path fill="#4D5B9D" d="M187,373.999C83.888,373.999,0,290.112,0,187S83.888,0,187,0s187,83.888,187,187
	S290.112,373.999,187,373.999z M187,6C87.196,6,6,87.196,6,187c0,99.803,81.196,180.999,181,180.999
	c99.803,0,181-81.196,181-180.999C368,87.196,286.803,6,187,6z"/>
<g enable-background="new    ">
	<path fill="#4D5B9D" d="M63.129,415.814v47.467c0,8.425-2.695,14.868-8.085,19.329c-5.391,4.462-12.63,6.692-21.718,6.692
		c-9.155,0-16.444-2.23-21.868-6.692c-5.423-4.461-8.135-10.904-8.135-19.329v-47.467h16.867v47.467c0,4.544,1.127,7.86,3.383,9.95
		c2.255,2.09,5.505,3.135,9.752,3.135c4.212,0,7.421-1.036,9.627-3.109c2.206-2.073,3.309-5.398,3.309-9.976v-47.467H63.129z"/>
	<path fill="#4D5B9D" d="M105.968,463.529H76.066v-12.985h29.902V463.529z"/>
	<path fill="#4D5B9D" d="M136.866,463.429v24.828h-16.867v-72.443h29.405c8.757,0,15.615,2.156,20.574,6.468
		c4.958,4.312,7.438,10.101,7.438,17.365c0,7.264-2.48,13.044-7.438,17.339c-4.959,4.297-11.817,6.443-20.574,6.443H136.866z
		 M136.866,450.493h12.538c3.715,0,6.509-0.987,8.384-2.961c1.874-1.973,2.811-4.568,2.811-7.786c0-3.284-0.929-5.938-2.786-7.961
		c-1.858-2.023-4.661-3.035-8.409-3.035h-12.538V450.493z"/>
	<path fill="#4D5B9D" d="M216.077,474.176h-23.036l-3.931,14.081h-16.868l23.286-72.443h18.111l23.385,72.443h-16.917
		L216.077,474.176z M196.672,461.241h15.772l-7.861-27.714h-0.149L196.672,461.241z"/>
	<path fill="#4D5B9D" d="M299.068,463.827c-0.498,8.358-3.251,14.694-8.26,19.007c-5.009,4.312-12.123,6.468-21.345,6.468
		c-9.056,0-16.129-2.679-21.221-8.035s-7.637-12.58-7.637-21.669v-15.125c0-8.956,2.612-16.146,7.836-21.569
		c5.225-5.423,12.231-8.135,21.021-8.135c9.354,0,16.444,2.198,21.271,6.593c4.826,4.396,7.638,10.821,8.434,19.28H282.4
		c-0.232-4.445-1.302-7.712-3.209-9.802c-1.908-2.09-5.149-3.135-9.728-3.135c-3.881,0-6.866,1.501-8.956,4.503
		s-3.134,7.058-3.134,12.165v15.225c0,5.274,0.97,9.388,2.91,12.34s5,4.428,9.18,4.428c4.246,0,7.389-1.012,9.429-3.035
		c2.04-2.022,3.176-5.19,3.408-9.503H299.068z"/>
	<path fill="#4D5B9D" d="M332.354,459.201h-7.762v29.057h-16.867v-72.443h16.867v28.36h5.722l15.922-28.36h20.897l-21.793,33.137
		l23.733,39.307h-20.5L332.354,459.201z"/>
</g>
</svg>
