<?xml version="1.0" encoding="utf-8"?>
<!-- Generator: Adobe Illustrator 17.0.0, SVG Export Plug-In . SVG Version: 6.00 Build 0)  -->
<!DOCTYPE svg PUBLIC "-//W3C//DTD SVG 1.1//EN" "http://www.w3.org/Graphics/SVG/1.1/DTD/svg11.dtd">
<svg version="1.1" id="Layer_1" xmlns="http://www.w3.org/2000/svg" xmlns:xlink="http://www.w3.org/1999/xlink" x="0px" y="0px"
	 width="39.188px" height="29.062px" viewBox="0 0 39.188 29.062" enable-background="new 0 0 39.188 29.062" xml:space="preserve">
<g>
	<g>
		<g>
			<path fill="#FFDE5B" d="M23.646,2.376c2.795,0,5.061,11.785,5.061,26.321h4.05c0-15.655-4.08-28.346-9.111-28.346
				c-2.863,0-5.417,3.814-7.087,9.778c-1.67-5.964-4.225-9.778-7.087-9.778c-5.031,0-9.112,12.691-9.112,28.346h4.051
				c0-14.537,2.267-26.321,5.061-26.321c2.795,0,5.062,10.878,5.062,24.297h4.049C18.584,13.254,20.852,2.376,23.646,2.376z"/>
		</g>
	</g>
	<g>
		<g>
			<g>
				<path fill="#FFDE5B" d="M36.808,24.637c1.097,0,2.017,0.87,2.017,2.018c0,1.163-0.92,2.035-2.017,2.035
					c-1.103,0-2.031-0.872-2.031-2.035C34.776,25.507,35.705,24.637,36.808,24.637z M36.808,28.393c0.93,0,1.652-0.753,1.652-1.738
					c0-0.969-0.723-1.721-1.652-1.721c-0.942,0-1.664,0.752-1.664,1.721C35.144,27.64,35.865,28.393,36.808,28.393z M36.02,25.477
					h0.912c0.559,0,0.822,0.226,0.822,0.676c0,0.432-0.268,0.607-0.617,0.646l0.671,1.05h-0.395l-0.64-1.021h-0.385v1.021H36.02
					V25.477z M36.389,26.529h0.381c0.322,0,0.619-0.017,0.619-0.395c0-0.313-0.27-0.359-0.519-0.359h-0.481V26.529z"/>
			</g>
		</g>
	</g>
</g>
</svg>
