<?xml version="1.0" encoding="utf-8"?>
<!-- Generator: Adobe Illustrator 17.0.0, SVG Export Plug-In . SVG Version: 6.00 Build 0)  -->
<!DOCTYPE svg PUBLIC "-//W3C//DTD SVG 1.1//EN" "http://www.w3.org/Graphics/SVG/1.1/DTD/svg11.dtd">
<svg version="1.1" id="Layer_1" xmlns="http://www.w3.org/2000/svg" xmlns:xlink="http://www.w3.org/1999/xlink" x="0px" y="0px"
	 width="557px" height="259px" viewBox="0 0 557 259" enable-background="new 0 0 557 259" xml:space="preserve">
<g>
	<polyline fill="#BE3D30" points="302.21,70.853 377.741,70.853 287.103,191.703 211.57,191.703 302.21,70.853 	"/>
	<path fill="#BE3D30" d="M532.581,29.312c-18.885-18.883-47.207-18.86-66.092-18.869l-54.385-0.01
		c-4.531-0.003-10.197,0-14.73,4.535c-4.531,4.531-4.531,10.196-4.531,14.729l0.004,10.944h75.531c5.035,0,12.59,0,17.625,5.038
		c5.035,5.035,5.035,12.59,5.035,17.621v75.53c0,5.039,0,12.594-5.035,17.627c-5.035,5.033-12.59,5.033-17.625,5.033h-36.506
		c-6.295,0-14.479,0-17.625-6.92c-3.147-6.924,1.26-13.217,5.035-18.254l49.096-65.46h-75.531l-30.213,40.284
		c-5.061,6.746-9.441,12.586-9.441,20.139c0,7.551,4.078,12.991,9.441,20.145l7.553,10.066
		c7.555,10.074,15.107,20.145,25.178,25.182c10.07,5.031,22.029,5.031,38.396,5.031h32.729c18.885,0,47.207,0,66.092-18.883
		c18.883-18.883,18.883-46.575,18.883-56.649V85.96C551.464,75.892,551.464,48.194,532.581,29.312z"/>
	<path fill="#BE3D30" d="M226.678,111.14l-7.555-10.074c-7.553-10.067-15.105-20.139-25.177-25.174
		c-10.071-5.039-22.029-5.039-38.396-5.039L26.893,70.857c-4.532,0-10.195,0-14.726,4.533c-4.53,4.53-4.532,10.194-4.532,14.726
		v10.95h30.214v151.063h60.425V101.066h59.166c6.295,0,14.478,0,17.625,6.928c3.146,6.923-1.26,13.217-5.036,18.252l-49.095,65.456
		h75.53l30.214-40.277c5.059-6.748,9.441-12.594,9.441-20.145C236.119,123.726,232.04,118.287,226.678,111.14z"/>
</g>
</svg>
